<svg width="2317" height="480" viewBox="0 0 2317 480" fill="none" xmlns="http://www.w3.org/2000/svg">
<path d="M136 46L0 141.266V221L102.173 153.002L136 172.415V46Z" fill="#916B42"/>
<path d="M285 136.385L149 46V180.019L221.51 224H285V136.385Z" fill="#916B42"/>
<path d="M61 196L0 236.453V363H61V196Z" fill="#916B42"/>
<path d="M102.186 167L196 223.298H136.237V363H73V186.809L102.186 167Z" fill="#916B42"/>
<path d="M285 236H149V363H285V236Z" fill="#916B42"/>
<path d="M514.1 369.3C491.467 369.3 470.933 364.75 452.5 355.65C434.3 346.317 419.833 332.55 409.1 314.35C398.367 296.15 393 273.867 393 247.5C393 227.433 396.267 209.817 402.8 194.65C409.333 179.483 418.2 166.767 429.4 156.5C440.833 146.233 453.9 138.533 468.6 133.4C483.533 128.267 499.283 125.7 515.85 125.7C529.15 125.7 541.4 127.217 552.6 130.25C563.8 133.283 574.3 137.483 584.1 142.85L585.5 185.9H582L564.5 157.9C562.167 153.467 559.6 149.5 556.8 146C554 142.267 550.5 139.467 546.3 137.6C542.8 135.967 539.3 134.8 535.8 134.1C532.533 133.167 528.333 132.7 523.2 132.7C509.667 132.7 497.3 136.317 486.1 143.55C475.133 150.783 466.267 162.8 459.5 179.6C452.967 196.167 449.7 218.917 449.7 247.85C449.7 276.55 452.85 299.3 459.15 316.1C465.45 332.667 473.967 344.567 484.7 351.8C495.667 358.8 507.917 362.3 521.45 362.3C528.917 362.3 534.867 361.833 539.3 360.9C543.733 359.733 548.167 358.1 552.6 356C557.033 354.133 560.417 351.45 562.75 347.95C565.083 344.217 567.183 340.25 569.05 336.05L584.45 301.75H587.95L586.9 351.8C577.1 356.933 566.133 361.133 554 364.4C541.867 367.667 528.567 369.3 514.1 369.3ZM597.638 363V359.5L606.388 356.35C611.055 354.483 614.671 352.267 617.238 349.7C619.805 346.9 621.905 343.05 623.538 338.15L695.638 131.3H725.388L796.438 339.55C798.305 344.683 800.405 348.65 802.738 351.45C805.071 354.017 808.688 356.233 813.588 358.1L817.788 359.5V363H728.888V359.5L734.138 357.75C739.038 355.883 741.955 353.317 742.888 350.05C744.055 346.55 743.938 342.467 742.538 337.8L726.088 287.4H648.388L631.588 336.75C629.955 341.883 629.371 345.967 629.838 349C630.538 352.033 633.338 354.483 638.238 356.35L645.938 359.5V363H597.638ZM650.838 280.4H723.988L688.638 171.55L650.838 280.4ZM905.425 369.3C892.591 369.3 879.525 367.667 866.225 364.4C852.925 361.367 841.841 357.283 832.975 352.15L834.725 304.55H838.225L849.075 327.3C852.341 333.833 855.841 339.667 859.575 344.8C863.308 349.7 868.441 353.55 874.975 356.35C879.641 358.683 884.075 360.317 888.275 361.25C892.708 361.95 897.608 362.3 902.975 362.3C917.208 362.3 928.408 358.45 936.575 350.75C944.975 343.05 949.175 333.133 949.175 321C949.175 309.567 946.375 300.7 940.775 294.4C935.175 287.867 926.191 281.567 913.825 275.5L899.475 269.2C879.408 260.333 863.658 250.183 852.225 238.75C841.025 227.083 835.425 211.683 835.425 192.55C835.425 178.783 838.925 166.883 845.925 156.85C853.158 146.817 863.075 139.117 875.675 133.75C888.508 128.383 903.441 125.7 920.475 125.7C932.841 125.7 944.508 127.333 955.475 130.6C966.675 133.867 976.358 138.3 984.525 143.9L982.425 185.9H978.925L964.575 159.65C960.608 151.483 956.641 145.767 952.675 142.5C948.708 139 944.158 136.55 939.025 135.15C935.991 134.217 933.191 133.633 930.625 133.4C928.058 132.933 924.791 132.7 920.825 132.7C908.925 132.7 898.891 136.2 890.725 143.2C882.558 149.967 878.475 159.183 878.475 170.85C878.475 182.75 881.625 192.317 887.925 199.55C894.225 206.55 903.441 212.85 915.575 218.45L931.675 225.45C954.075 235.25 970.175 245.75 979.975 256.95C989.775 267.917 994.675 282.15 994.675 299.65C994.675 320.183 986.858 336.983 971.225 350.05C955.825 362.883 933.891 369.3 905.425 369.3ZM998.566 363V359.5L1007.32 356.35C1011.98 354.483 1015.6 352.267 1018.17 349.7C1020.73 346.9 1022.83 343.05 1024.47 338.15L1096.57 131.3H1126.32L1197.37 339.55C1199.23 344.683 1201.33 348.65 1203.67 351.45C1206 354.017 1209.62 356.233 1214.52 358.1L1218.72 359.5V363H1129.82V359.5L1135.07 357.75C1139.97 355.883 1142.88 353.317 1143.82 350.05C1144.98 346.55 1144.87 342.467 1143.47 337.8L1127.02 287.4H1049.32L1032.52 336.75C1030.88 341.883 1030.3 345.967 1030.77 349C1031.47 352.033 1034.27 354.483 1039.17 356.35L1046.87 359.5V363H998.566ZM1051.77 280.4H1124.92L1089.57 171.55L1051.77 280.4ZM1229.04 363V359.5L1236.04 357.05C1243.97 354.483 1247.94 347.833 1247.94 337.1V157.9C1247.94 153.233 1247.35 149.5 1246.19 146.7C1245.25 143.9 1242.57 141.567 1238.14 139.7L1229.04 135.5V132H1296.59L1361.34 301.4L1422.24 132H1491.19V135.5L1485.59 137.6C1481.15 139.233 1478.12 141.567 1476.49 144.6C1474.85 147.4 1474.04 151.133 1474.04 155.8V338.85C1474.04 343.517 1474.62 347.133 1475.79 349.7C1476.95 352.267 1479.75 354.483 1484.19 356.35L1491.19 359.5V363H1404.04V359.5L1411.39 356.35C1415.82 354.483 1418.62 352.267 1419.79 349.7C1420.95 347.133 1421.54 343.517 1421.54 338.85V260.1L1422.24 160L1349.09 363H1331.59L1255.29 162.45L1256.34 249.6V337.8C1256.34 342.933 1257.04 347.133 1258.44 350.4C1260.07 353.433 1263.1 355.65 1267.54 357.05L1275.24 359.5V363H1229.04ZM1501.69 363V359.5L1510.44 356.35C1515.11 354.483 1518.72 352.267 1521.29 349.7C1523.86 346.9 1525.96 343.05 1527.59 338.15L1599.69 131.3H1629.44L1700.49 339.55C1702.36 344.683 1704.46 348.65 1706.79 351.45C1709.12 354.017 1712.74 356.233 1717.64 358.1L1721.84 359.5V363H1632.94V359.5L1638.19 357.75C1643.09 355.883 1646.01 353.317 1646.94 350.05C1648.11 346.55 1647.99 342.467 1646.59 337.8L1630.14 287.4H1552.44L1535.64 336.75C1534.01 341.883 1533.42 345.967 1533.89 349C1534.59 352.033 1537.39 354.483 1542.29 356.35L1549.99 359.5V363H1501.69ZM1554.89 280.4H1628.04L1592.69 171.55L1554.89 280.4ZM1732.86 363V359.5L1740.21 356.7C1745.11 354.833 1748.14 352.617 1749.31 350.05C1750.71 347.25 1751.41 343.517 1751.41 338.85V156.15C1751.41 151.483 1750.71 147.75 1749.31 144.95C1747.91 142.15 1744.88 139.933 1740.21 138.3L1732.86 135.5V132H1822.11V135.5L1815.81 138.3C1811.38 139.933 1808.34 142.267 1806.71 145.3C1805.08 148.1 1804.26 151.833 1804.26 156.5V356H1858.16C1866.79 356 1873.09 353.9 1877.06 349.7C1881.26 345.5 1885.23 339.433 1888.96 331.5L1902.61 302.1H1906.11L1902.96 363H1732.86ZM2015.39 369.3C1997.66 369.3 1981.91 366.15 1968.14 359.85C1954.61 353.55 1943.99 343.633 1936.29 330.1C1928.83 316.333 1925.09 298.25 1925.09 275.85V155.1C1925.09 146.233 1920.54 140.4 1911.44 137.6L1903.74 135.5V132H2000.69V135.5L1990.54 138.3C1981.91 140.4 1977.59 146.233 1977.59 155.8V284.95C1977.59 306.65 1982.14 322.75 1991.24 333.25C2000.34 343.517 2013.41 348.65 2030.44 348.65C2048.18 348.65 2062.18 343.167 2072.44 332.2C2082.94 321.233 2088.19 305.717 2088.19 285.65V157.2C2088.19 152.533 2087.38 148.45 2085.74 144.95C2084.34 141.217 2081.31 138.767 2076.64 137.6L2067.89 135.5V132H2116.89V135.5L2107.44 137.95C2103.01 138.883 2100.09 141.1 2098.69 144.6C2097.29 148.1 2096.59 152.183 2096.59 156.85V284.95C2096.59 301.983 2093.21 316.917 2086.44 329.75C2079.68 342.35 2070.23 352.15 2058.09 359.15C2045.96 365.917 2031.73 369.3 2015.39 369.3ZM2127.62 363V358.8L2249.07 139H2182.57C2174.87 139 2168.57 140.75 2163.67 144.25C2159 147.75 2154.8 152.883 2151.07 159.65L2134.97 188H2131.47L2133.92 132H2305.07V136.2L2183.62 356H2259.92C2267.62 356 2273.69 354.25 2278.12 350.75C2282.79 347.017 2286.99 341.767 2290.72 335L2305.77 307H2309.27L2306.82 363H2127.62Z" fill="#191817"/>
</svg>
